<svg width="1466" height="89" viewBox="0 0 1466 89" fill="none" xmlns="http://www.w3.org/2000/svg">
<path d="M121.4 32L113.15 57.5H43.55L33.35 89H0.8L19.25 32H121.4ZM123.2 26.75H14L29.75 0.649993H131.6L123.2 26.75ZM128.773 57.65L147.223 0.649993H179.773L161.323 57.65H128.773ZM229.273 62.9L220.723 89H118.573L127.123 62.9H229.273ZM350.347 0.649993C352.947 0.649993 355.247 1.24999 357.247 2.45C359.247 3.54999 360.847 4.99999 362.047 6.79999C363.247 8.6 363.997 10.7 364.297 13.1C364.597 15.4 364.347 17.75 363.547 20.15L347.647 69.2C346.847 71.6 345.497 74 343.597 76.4C341.797 78.7 339.697 80.8 337.297 82.7C334.897 84.6 332.297 86.15 329.497 87.35C326.797 88.45 324.197 89 321.697 89H255.997C253.397 89 251.097 88.45 249.097 87.35C247.097 86.15 245.497 84.6 244.297 82.7C243.097 80.8 242.347 78.7 242.047 76.4C241.747 74 241.997 71.6 242.797 69.2L244.897 62.9H317.197L328.897 26.45H289.147L279.097 57.65H246.547L258.697 20.15C259.497 17.75 260.797 15.4 262.597 13.1C264.397 10.7 266.497 8.6 268.897 6.79999C271.297 4.99999 273.847 3.54999 276.547 2.45C279.347 1.24999 282.047 0.649993 284.647 0.649993H350.347ZM428.307 89C428.307 84.5 428.257 80.15 428.157 75.95C428.057 71.65 427.457 67.4 426.357 63.2C425.557 59.4 421.657 57.5 414.657 57.5H399.507L389.307 89H356.757L375.207 32H447.057L448.857 26.75H369.957L385.707 0.649993H470.157C472.757 0.649993 475.057 1.24999 477.057 2.45C479.157 3.54999 480.807 4.99999 482.007 6.79999C483.207 8.6 483.957 10.7 484.257 13.1C484.557 15.4 484.307 17.75 483.507 20.15L477.657 38C477.257 39.2 476.507 40.7 475.407 42.5C474.407 44.2 473.157 45.9 471.657 47.6C470.257 49.2 468.707 50.65 467.007 51.95C465.307 53.15 463.657 53.85 462.057 54.05C463.657 58.75 464.457 64.05 464.457 69.95C464.457 72.95 464.257 76.05 463.857 79.25C463.557 82.35 463.107 85.6 462.507 89H428.307ZM476.728 89L495.178 32H527.728L509.278 89H476.728ZM537.928 0.649993L529.528 26.75H496.978L505.378 0.649993H537.928ZM543.371 32H615.221L617.021 26.75H538.121L553.871 0.649993H638.321C640.921 0.649993 643.221 1.24999 645.221 2.45C647.321 3.54999 648.971 4.99999 650.171 6.79999C651.371 8.6 652.121 10.7 652.421 13.1C652.721 15.4 652.471 17.75 651.671 20.15L645.821 38C645.221 39.8 644.021 41.85 642.221 44.15C640.521 46.35 638.471 48.45 636.071 50.45C633.671 52.45 631.021 54.15 628.121 55.55C625.321 56.85 622.571 57.5 619.871 57.5H567.671L557.471 89H524.921L543.371 32ZM707.294 26.75H672.194L690.644 0.649993H737.744L742.394 89H708.044L706.544 57.5H684.794L663.044 89H628.694L668.294 32H706.844L707.294 26.75Z" fill="white"/>
<path d="M879.918 89C879.918 84.5 879.868 80.15 879.768 75.95C879.668 71.65 879.068 67.4 877.968 63.2C877.168 59.4 873.268 57.5 866.268 57.5H851.118L840.918 89H808.368L826.818 32H898.668L900.468 26.75H821.568L837.318 0.649993H921.768C924.368 0.649993 926.668 1.24999 928.668 2.45C930.768 3.54999 932.418 4.99999 933.618 6.79999C934.818 8.6 935.568 10.7 935.868 13.1C936.168 15.4 935.918 17.75 935.118 20.15L929.268 38C928.868 39.2 928.118 40.7 927.018 42.5C926.018 44.2 924.768 45.9 923.268 47.6C921.868 49.2 920.318 50.65 918.618 51.95C916.918 53.15 915.268 53.85 913.668 54.05C915.268 58.75 916.068 64.05 916.068 69.95C916.068 72.95 915.868 76.05 915.468 79.25C915.168 82.35 914.718 85.6 914.118 89H879.918ZM1003.34 26.75H968.239L986.689 0.649993H1033.79L1038.44 89H1004.09L1002.59 57.5H980.839L959.089 89H924.739L964.339 32H1002.89L1003.34 26.75ZM1149.32 89H1065.62C1063.02 89 1060.67 88.45 1058.57 87.35C1056.57 86.15 1054.97 84.65 1053.77 82.85C1052.57 81.05 1051.82 79 1051.52 76.7C1051.22 74.3 1051.47 71.9 1052.27 69.5L1064.42 32H1096.97L1086.92 63.2H1157.72L1149.32 89ZM1169.57 26.75H1066.22L1068.17 20.45C1068.97 18.05 1070.27 15.7 1072.07 13.4C1073.97 11 1076.12 8.85 1078.52 6.94999C1080.92 5.04999 1083.47 3.54999 1086.17 2.45C1088.97 1.24999 1091.67 0.649993 1094.27 0.649993H1177.97L1169.57 26.75ZM1164.76 89L1183.21 32H1215.76L1197.31 89H1164.76ZM1225.96 0.649993L1217.56 26.75H1185.01L1193.41 0.649993H1225.96ZM1284.81 89L1305.06 26.75H1226.16L1241.91 0.649993H1326.36C1328.96 0.649993 1331.26 1.24999 1333.26 2.45C1335.36 3.54999 1337.01 4.99999 1338.21 6.79999C1339.41 8.6 1340.16 10.7 1340.46 13.1C1340.76 15.4 1340.51 17.75 1339.71 20.15L1317.36 89H1284.81ZM1212.96 89L1231.41 32H1263.96L1245.51 89H1212.96ZM1437.33 89H1352.58C1349.98 89 1347.63 88.45 1345.53 87.35C1343.53 86.15 1341.93 84.65 1340.73 82.85C1339.53 81.05 1338.78 79 1338.48 76.7C1338.18 74.3 1338.43 71.9 1339.23 69.5L1351.38 32H1383.93L1374.03 62.9H1413.33L1414.98 57.5H1390.98L1399.23 32H1455.78L1437.33 89ZM1457.58 26.75H1353.18L1355.13 20.45C1355.93 18.05 1357.23 15.7 1359.03 13.4C1360.93 11 1363.08 8.85 1365.48 6.94999C1367.88 5.04999 1370.43 3.54999 1373.13 2.45C1375.93 1.24999 1378.63 0.649993 1381.23 0.649993H1465.98L1457.58 26.75Z" fill="#ED1C24"/>
</svg>
